<svg width="1075" height="84" viewBox="0 0 1075 84" fill="none" xmlns="http://www.w3.org/2000/svg"><path d="M435.5 1H436.5C439.02 1 441.436 2.00089 443.218 3.78249C444.999 5.56408 446 7.98044 446 10.5V73.5C446 76.0196 444.999 78.4359 443.218 80.2175C441.436 81.9991 439.02 83 436.5 83H324.5C321.98 83 319.564 81.9991 317.782 80.2175C316.001 78.4359 315 76.0196 315 73.5V10.5C315 7.98044 316.001 5.56408 317.782 3.78249C319.564 2.00089 321.98 1 324.5 1H435.5Z" fill="white" stroke="#7D7D7D" stroke-width="2"></path> <path d="M429.124 47.0317C427.536 47.0317 426.249 48.3448 426.249 49.9648C426.249 51.5845 427.536 52.8979 429.124 52.8979C430.712 52.8979 432 51.5846 432 49.9648C432 48.3447 430.713 47.0317 429.124 47.0317ZM419.664 44.764C419.664 42.5462 417.806 40.7487 415.514 40.7487C413.221 40.7487 411.363 42.5463 411.363 44.764C411.363 46.9819 413.221 48.7799 415.514 48.7799C417.806 48.7799 419.664 46.9819 419.664 44.764ZM419.68 36.9596H424.261V52.5678H419.68V51.5703C418.386 52.4707 416.824 52.9999 415.139 52.9999C410.68 52.9999 407.065 49.3126 407.065 44.7639C407.065 40.2152 410.68 36.5282 415.139 36.5282C416.824 36.5282 418.386 37.0575 419.68 37.9581V36.9596V36.9596ZM383.019 38.9927V36.9599H378.329V52.5678H383.03V45.2807C383.03 42.8221 385.642 41.5006 387.454 41.5006C387.473 41.5006 387.49 41.5025 387.509 41.5027V36.9611C385.648 36.9611 383.937 37.7737 383.019 38.993L383.019 38.9927ZM371.336 44.7641C371.336 42.5462 369.477 40.7487 367.185 40.7487C364.892 40.7487 363.034 42.5463 363.034 44.7641C363.034 46.9819 364.892 48.78 367.185 48.78C369.477 48.78 371.336 46.9819 371.336 44.7641ZM371.351 36.9597H375.932V52.5679H371.351V51.5704C370.057 52.4707 368.495 53 366.81 53C362.351 53 358.736 49.3127 358.736 44.764C358.736 40.2153 362.351 36.5283 366.81 36.5283C368.495 36.5283 370.057 37.0575 371.351 37.9581V36.9596V36.9597ZM398.925 36.5399C397.095 36.5399 395.363 37.1195 394.205 38.7184V36.9606H389.644V52.568H394.261V44.3658C394.261 41.9923 395.821 40.8301 397.7 40.8301C399.713 40.8301 400.871 42.057 400.871 44.3336V52.568H405.446V42.6425C405.446 39.0103 402.615 36.5402 398.925 36.5402V36.5399ZM352.063 52.568H356.858V30.0043H352.063V52.568V52.568ZM331 52.5742H336.077V30.0001H331V52.5742ZM348.759 30.0001C348.759 34.8871 346.892 39.4334 343.565 42.8126L350.583 52.575H344.312L336.685 41.9654L338.653 40.4615C341.918 37.967 343.79 34.1541 343.79 30H348.759L348.759 30.0001Z" fill="#7D7D7D"></path> <path d="M278.5 1H279.5C282.02 1 284.436 2.00089 286.218 3.78249C287.999 5.56408 289 7.98044 289 10.5V73.5C289 76.0196 287.999 78.4359 286.218 80.2175C284.436 81.9991 282.02 83 279.5 83H167.5C164.98 83 162.564 81.9991 160.782 80.2175C159.001 78.4359 158 76.0196 158 73.5V10.5C158 7.98044 159.001 5.56408 160.782 3.78249C162.564 2.00089 164.98 1 167.5 1H278.5Z" fill="white" stroke="#7D7D7D" stroke-width="2"></path> <path d="M192.141 27.543C193.316 26.0312 194.156 24.0156 193.904 22C192.141 22.084 190.042 23.1758 188.782 24.6035C187.691 25.8633 186.683 27.9629 186.935 29.8945C188.95 30.1465 190.881 29.0547 192.141 27.543V27.543ZM193.904 30.3984C191.049 30.2305 188.614 31.9941 187.271 31.9941C185.928 31.9941 183.829 30.4824 181.562 30.4824C178.624 30.5664 175.937 32.1621 174.426 34.8496C171.403 40.1406 173.586 47.9512 176.609 52.2344C178.036 54.334 179.799 56.6855 182.066 56.6016C184.249 56.5176 185.088 55.1738 187.691 55.1738C190.294 55.1738 191.049 56.6016 193.4 56.5176C195.751 56.4336 197.262 54.418 198.689 52.2344C200.368 49.7988 201.04 47.4473 201.04 47.3633C200.956 47.2793 196.422 45.5996 196.422 40.3926C196.338 36.0254 199.949 33.9258 200.116 33.8418C198.185 30.8184 194.995 30.4824 193.904 30.3984" fill="#7D7D7D"></path> <path d="M218.589 24.4355C224.801 24.4355 229.083 28.7188 229.083 34.8496C229.083 41.0645 224.717 45.3477 218.421 45.3477H211.62V56.1816H206.667V24.4355H218.589ZM211.62 41.2324H217.245C221.527 41.2324 223.962 38.8809 223.962 34.9336C223.962 30.9023 221.527 28.6348 217.245 28.6348H211.536V41.2324H211.62V41.2324ZM230.342 49.7148C230.342 45.6836 233.449 43.1641 238.99 42.8281L245.371 42.4922V40.7285C245.371 38.125 243.608 36.6133 240.753 36.6133C237.982 36.6133 236.303 37.957 235.884 39.9727H231.35C231.602 35.7734 235.212 32.666 240.921 32.666C246.546 32.666 250.156 35.6055 250.156 40.3086V56.2656H245.622V52.4863H245.539C244.195 55.0898 241.257 56.6855 238.234 56.6855C233.533 56.6855 230.342 53.8301 230.342 49.7148V49.7148ZM245.371 47.6152V45.7676L239.662 46.1035C236.807 46.2715 235.212 47.5313 235.212 49.5469C235.212 51.5625 236.891 52.9063 239.41 52.9063C242.768 52.9063 245.371 50.6387 245.371 47.6152V47.6152ZM254.354 64.832V60.9688C254.69 61.0527 255.529 61.0527 255.865 61.0527C258.048 61.0527 259.223 60.1289 259.979 57.7773C259.979 57.6934 260.399 56.3496 260.399 56.3496L252.003 33.1699H257.124L263.001 52.0664H263.085L268.962 33.1699H274L265.352 57.6094C263.337 63.2363 261.07 65 256.285 65C255.949 64.916 254.774 64.916 254.354 64.832Z" fill="#7D7D7D"></path> <path d="M121.5 1H122.5C125.02 1 127.436 2.00089 129.218 3.78249C130.999 5.56408 132 7.98044 132 10.5V73.5C132 76.0196 130.999 78.4359 129.218 80.2175C127.436 81.9991 125.02 83 122.5 83H10.5C7.98044 83 5.56408 81.9991 3.78249 80.2175C2.00089 78.4359 1 76.0196 1 73.5V10.5C1 7.98044 2.00089 5.56408 3.78249 3.78249C5.56408 2.00089 7.98044 1 10.5 1H121.5Z" fill="white" stroke="#7D7D7D" stroke-width="2"></path> <path d="M27.3987 29L16 53.9679H29.6458L31.3375 49.987H35.2043L36.896 53.9679H51.9162V50.9295L53.2546 53.9679H61.0242L62.3626 50.8653V53.9679H93.6005L97.3989 50.0903L100.956 53.9679L117 54L105.565 41.5536L117 29H101.204L97.5069 32.8059L94.0622 29H60.0794L57.1613 35.4444L54.1748 29H40.5575V31.935L39.0426 29C39.0426 29 27.3987 29 27.3987 29ZM30.0391 32.5455H36.6906L44.2514 49.4763V32.5455H51.538L57.3777 44.6848L62.7598 32.5455H70.01V50.4616H65.5984L65.5624 36.4226L59.1307 50.4616H55.1844L48.7168 36.4226V50.4616H39.6412L37.9206 46.445H28.6251L26.9081 50.4581H22.0455C22.0455 50.4581 30.0391 32.5455 30.0391 32.5455ZM74.0461 32.5455H91.9844L97.4709 38.4115L103.134 32.5455H108.621L100.285 41.5501L108.621 50.451H102.885L97.3989 44.5168L91.7067 50.451H74.0461V32.5455ZM33.2748 35.5768L30.2123 42.7319H36.3338L33.2748 35.5768ZM78.4759 36.255V39.5256H88.262V43.1709H78.4759V46.7415H89.4524L94.5528 41.4824L89.6688 36.2519H78.4759V36.255Z" fill="#7D7D7D"></path> <path d="M1063.5 1H1064.5C1067.02 1 1069.44 2.00089 1071.22 3.78249C1073 5.56408 1074 7.98044 1074 10.5V73.5C1074 76.0196 1073 78.4359 1071.22 80.2175C1069.44 81.9991 1067.02 83 1064.5 83H952.5C949.98 83 947.564 81.9991 945.782 80.2175C944.001 78.4359 943 76.0196 943 73.5V10.5C943 7.98044 944.001 5.56408 945.782 3.78249C947.564 2.00089 949.98 1 952.5 1H1063.5Z" fill="white" stroke="#7D7D7D" stroke-width="2"></path> <path d="M997.441 26.5161L992.308 56.5498H1000.52L1005.65 26.5161H997.441Z" fill="#7D7D7D"></path> <path d="M985.424 26.5492L977.384 47.0313L976.527 43.9386C974.941 40.2123 970.439 34.8607 965.154 31.4881L972.506 56.5344L981.193 56.5197L994.121 26.5428L985.424 26.5492Z" fill="#7D7D7D"></path> <path d="M973.41 28.6998C972.933 26.8703 971.55 26.325 969.833 26.2598H957.106L957 26.8577C966.905 29.2535 973.459 35.0261 976.178 41.9671L973.41 28.6998Z" fill="#7D7D7D"></path> <path d="M1022.29 32.2737C1024.98 32.2316 1026.93 32.8168 1028.44 33.4232L1029.18 33.7705L1030.29 27.2611C1028.66 26.6526 1026.11 26 1022.93 26C1014.82 26 1009.1 30.0737 1009.06 35.9116C1009.01 40.2253 1013.13 42.6337 1016.25 44.0716C1019.45 45.5453 1020.52 46.4821 1020.51 47.7979C1020.48 49.8084 1017.96 50.7305 1015.6 50.7305C1012.31 50.7305 1010.56 50.2779 1007.87 49.1579L1006.81 48.6779L1005.65 55.4C1007.58 56.24 1011.12 56.9621 1014.8 57C1023.43 57 1029.04 52.9747 1029.1 46.7368C1029.13 43.3242 1026.94 40.72 1022.2 38.5832C1019.33 37.1895 1017.57 36.2632 1017.59 34.8568C1017.59 33.6084 1019.08 32.2737 1022.29 32.2737Z" fill="#7D7D7D"></path> <path d="M1051.36 26.5488H1045.01C1043.04 26.5488 1041.58 27.0836 1040.71 29.0415L1028.52 56.5657H1037.15C1037.15 56.5657 1038.55 52.8646 1038.87 52.0541C1039.81 52.0541 1048.19 52.0667 1049.38 52.0667C1049.63 53.1151 1050.38 56.5657 1050.38 56.5657H1058L1051.36 26.5488ZM1041.23 45.9067C1041.91 44.1825 1044.5 37.513 1044.5 37.513C1044.46 37.5951 1045.17 35.7762 1045.6 34.6457L1046.15 37.2351C1046.15 37.2351 1047.72 44.4057 1048.05 45.9067H1041.23Z" fill="#7D7D7D"></path> <path d="M481.5 1H593.5C596.02 1 598.436 2.00089 600.218 3.78249C601.999 5.56408 603 7.98044 603 10.5V73.5C603 76.0196 601.999 78.4359 600.218 80.2175C598.436 81.9991 596.02 83 593.5 83H481.5C478.98 83 476.564 81.9991 474.782 80.2175C473.001 78.4359 472 76.0196 472 73.5V10.5C472 7.98044 473.001 5.56408 474.782 3.78249C476.564 2.00089 478.98 1 481.5 1Z" fill="white" stroke="#7D7D7D" stroke-width="2"></path> <path d="M597.42 34.9999L593.71 32.8649L590 30.6249C589.43 30.3 588.785 30.1305 588.129 30.1332C587.473 30.1359 586.83 30.3108 586.263 30.6404C585.696 30.97 585.225 31.4426 584.898 32.0112C584.571 32.5797 584.399 33.2241 584.4 33.8799V34.3349C584.4 34.4658 584.431 34.5948 584.492 34.7107C584.553 34.8266 584.642 34.9259 584.75 34.9999L586.5 35.9799C586.582 36.0287 586.673 36.0603 586.768 36.0726C586.862 36.0849 586.958 36.0777 587.05 36.0515C587.142 36.0253 587.227 35.9806 587.301 35.9201C587.375 35.8596 587.436 35.7847 587.48 35.6999C587.511 35.5853 587.511 35.4644 587.48 35.3499V34.2299C587.475 34.1333 587.489 34.0368 587.522 33.9458C587.555 33.8548 587.605 33.7712 587.67 33.6997C587.735 33.6281 587.813 33.5701 587.901 33.529C587.988 33.4879 588.083 33.4644 588.18 33.4599H588.6L592.1 35.4549L595.6 37.4149C595.77 37.523 595.891 37.6935 595.937 37.8898C595.982 38.0862 595.949 38.2926 595.845 38.4649L595.6 38.7099L592.1 40.6699L588.6 42.6649C588.517 42.7159 588.425 42.75 588.329 42.7653C588.233 42.7806 588.136 42.7767 588.041 42.7539C587.947 42.7312 587.858 42.6899 587.78 42.6326C587.701 42.5752 587.635 42.5029 587.585 42.4199C587.549 42.2821 587.549 42.1376 587.585 41.9999V41.4399C587.585 40.7841 587.413 40.1397 587.086 39.5711C586.759 39.0026 586.289 38.53 585.722 38.2004C585.155 37.8708 584.511 37.6959 583.855 37.6932C583.199 37.6905 582.554 37.86 581.985 38.1849L578.205 40.3549L574.495 42.4899C573.638 42.9881 573.011 43.8028 572.75 44.7585C572.488 45.7143 572.612 46.7346 573.095 47.5999C573.417 48.1916 573.903 48.6777 574.495 48.9999L578.205 51.1349L581.985 53.2699C582.554 53.5947 583.199 53.7643 583.855 53.7615C584.511 53.7588 585.155 53.5839 585.722 53.2543C586.289 52.9248 586.759 52.4521 587.086 51.8836C587.413 51.3151 587.585 50.6707 587.585 50.0149V49.5599C587.585 49.4289 587.553 49.2999 587.492 49.184C587.431 49.0681 587.343 48.9689 587.235 48.8949L585.485 47.8799C585.403 47.831 585.312 47.7995 585.217 47.7872C585.122 47.7748 585.026 47.782 584.934 47.8082C584.842 47.8345 584.757 47.8792 584.683 47.9397C584.609 48.0001 584.549 48.0751 584.505 48.1599C584.474 48.2863 584.474 48.4184 584.505 48.5449V49.6649C584.509 49.7614 584.495 49.8579 584.462 49.9489C584.43 50.0399 584.379 50.1236 584.314 50.1951C584.249 50.2666 584.171 50.3246 584.083 50.3657C583.996 50.4069 583.901 50.4304 583.805 50.4349C583.666 50.4664 583.523 50.4664 583.385 50.4349L579.885 48.4399L576.385 46.4799C576.208 46.3959 576.07 46.248 575.999 46.066C575.927 45.884 575.927 45.6816 576 45.4999L576.245 45.2549L579.745 43.2949L583.245 41.2999C583.327 41.2489 583.419 41.2147 583.515 41.1995C583.611 41.1842 583.709 41.188 583.803 41.2108C583.898 41.2336 583.987 41.2748 584.065 41.3322C584.143 41.3895 584.209 41.4618 584.26 41.5449C584.295 41.6826 584.295 41.8271 584.26 41.9649V42.5249C584.259 43.1807 584.431 43.8251 584.758 44.3936C585.085 44.9621 585.556 45.4348 586.123 45.7643C586.69 46.0939 587.333 46.2688 587.989 46.2715C588.645 46.2743 589.29 46.1047 589.86 45.7799L593.64 43.6099L597.35 41.4749C597.768 41.2174 598.131 40.8794 598.418 40.4805C598.705 40.0816 598.909 39.6297 599.02 39.1511C599.131 38.6725 599.145 38.1766 599.063 37.6923C598.98 37.208 598.803 36.7449 598.54 36.3299C598.284 35.7994 597.899 35.3419 597.42 34.9999Z" fill="#7D7D7D"></path> <path d="M572.99 35.6301L564.275 53.6201H560.775L564.03 46.9001L558.92 35.6301H562.63L565.92 43.1551L569.42 35.6301H572.99Z" fill="#7D7D7D"></path> <path d="M485.875 42C485.841 41.3163 485.607 40.6576 485.202 40.1055C484.797 39.5534 484.239 39.1321 483.598 38.8938C482.956 38.6556 482.258 38.6107 481.591 38.7649C480.924 38.9191 480.317 39.2655 479.845 39.7612C479.373 40.257 479.056 40.8803 478.935 41.554C478.813 42.2277 478.892 42.9223 479.161 43.5517C479.431 44.1811 479.879 44.7177 480.45 45.0951C481.021 45.4725 481.69 45.6742 482.375 45.675V45.675C483.303 45.675 484.193 45.3063 484.85 44.6499C485.506 43.9935 485.875 43.1033 485.875 42.175V42ZM485.875 48.405V46.725C485.381 47.3218 484.76 47.8011 484.058 48.128C483.356 48.4549 482.59 48.6213 481.815 48.615C480.992 48.5968 480.181 48.4167 479.428 48.0849C478.675 47.7532 477.994 47.2763 477.425 46.6815C476.857 46.0867 476.411 45.3856 476.113 44.6184C475.815 43.8512 475.671 43.0328 475.69 42.21V42C475.657 41.1633 475.79 40.3284 476.08 39.543C476.37 38.7576 476.812 38.037 477.381 37.4226C477.95 36.8083 478.634 36.3121 479.395 35.9624C480.156 35.6128 480.978 35.4166 481.815 35.385V35.385C482.576 35.3799 483.328 35.5437 484.018 35.8644C484.708 36.1852 485.318 36.655 485.805 37.24V35.63H488.92V48.405H485.875Z" fill="#7D7D7D"></path> <path d="M504.32 45.5001C503.2 45.5001 502.92 45.0801 502.92 44.0301V38.5001H504.915V35.7351H502.92V32.5151H499.7V35.6301H495.5V34.3351C495.5 33.2851 495.92 32.8651 497.04 32.8651H497.74V30.3801H496.235C493.575 30.3801 492.315 31.2551 492.315 33.8801V35.5951H490.53V38.5001H492.315V48.5101H495.5V38.5001H499.7V44.7651C499.7 47.3901 500.68 48.5101 503.2 48.5101H504.95V45.5001H504.32Z" fill="#7D7D7D"></path> <path d="M515.87 40.845C515.766 40.0875 515.38 39.3969 514.79 38.9106C514.2 38.4242 513.449 38.1777 512.685 38.22C511.919 38.1848 511.168 38.433 510.573 38.9173C509.979 39.4016 509.585 40.088 509.465 40.845H515.87ZM509.5 42.84C509.554 43.6663 509.928 44.439 510.542 44.9944C511.156 45.5497 511.962 45.8441 512.79 45.815C513.391 45.8222 513.983 45.6746 514.51 45.3865C515.038 45.0984 515.482 44.6795 515.8 44.17H519.09C518.683 45.5195 517.833 46.6923 516.677 47.4988C515.521 48.3054 514.127 48.6987 512.72 48.615C511.054 48.7304 509.41 48.1796 508.15 47.0836C506.89 45.9875 506.117 44.436 506 42.77V42C506 40.2456 506.697 38.5631 507.937 37.3225C509.178 36.0819 510.861 35.385 512.615 35.385C514.369 35.385 516.052 36.0819 517.293 37.3225C518.533 38.5631 519.23 40.2456 519.23 42V42C519.265 42.2672 519.265 42.5378 519.23 42.805L509.5 42.84Z" fill="#7D7D7D"></path> <path d="M539.81 42.0001C539.787 41.0797 539.402 40.2054 538.739 39.5667C538.076 38.928 537.188 38.5763 536.267 38.5878C535.347 38.5993 534.468 38.9731 533.821 39.6282C533.174 40.2833 532.811 41.1669 532.811 42.0876C532.811 43.0082 533.174 43.8918 533.821 44.5469C534.468 45.202 535.347 45.5758 536.267 45.5873C537.188 45.5988 538.076 45.2471 538.739 44.6084C539.402 43.9697 539.787 43.0955 539.81 42.1751V42.0001ZM529.695 53.6201V35.6301H532.81V37.2751C533.304 36.6783 533.924 36.199 534.627 35.8721C535.329 35.5451 536.095 35.3788 536.87 35.3851C537.693 35.3987 538.505 35.5744 539.259 35.9019C540.014 36.2294 540.697 36.7025 541.269 37.294C541.841 37.8856 542.291 38.584 542.593 39.3494C542.895 40.1149 543.044 40.9323 543.03 41.7551V42.0001C543.063 42.8367 542.93 43.6717 542.64 44.4571C542.35 45.2425 541.908 45.963 541.339 46.5774C540.77 47.1918 540.085 47.688 539.325 48.0377C538.564 48.3873 537.742 48.5835 536.905 48.6151C536.171 48.6291 535.444 48.4829 534.773 48.1867C534.102 47.8905 533.504 47.4514 533.02 46.9001V53.6201H529.695Z" fill="#7D7D7D"></path> <path d="M554.37 42C554.335 41.3239 554.105 40.6725 553.708 40.1245C553.31 39.5766 552.762 39.1556 552.131 38.9127C551.499 38.6698 550.81 38.6153 550.148 38.7559C549.486 38.8965 548.878 39.2261 548.4 39.7047C547.921 40.1834 547.592 40.7906 547.451 41.4528C547.31 42.115 547.365 42.8037 547.608 43.4356C547.851 44.0674 548.272 44.6153 548.82 45.0127C549.368 45.4102 550.019 45.6403 550.695 45.675H550.87C551.798 45.675 552.689 45.3062 553.345 44.6499C554.001 43.9935 554.37 43.1033 554.37 42.175V42ZM554.37 48.405V46.725C553.885 47.3229 553.271 47.8035 552.574 48.1308C551.877 48.458 551.115 48.6236 550.345 48.615C549.522 48.6013 548.71 48.4257 547.955 48.0981C547.201 47.7706 546.518 47.2976 545.946 46.706C545.374 46.1145 544.924 45.4161 544.622 44.6506C544.319 43.8852 544.171 43.0678 544.185 42.245V42C544.152 41.1633 544.285 40.3284 544.575 39.543C544.865 38.7575 545.307 38.037 545.876 37.4226C546.445 36.8082 547.129 36.312 547.89 35.9624C548.651 35.6128 549.473 35.4166 550.31 35.385V35.385C551.066 35.3802 551.813 35.5442 552.497 35.8652C553.182 36.1861 553.786 36.6558 554.265 37.24V35.63H557.415V48.405H554.37Z" fill="#7D7D7D"></path> <path d="M524.025 36.8901C524.316 36.4212 524.724 36.0359 525.209 35.7721C525.693 35.5082 526.238 35.3749 526.79 35.3851C527.26 35.3729 527.727 35.4687 528.155 35.6651V38.9551C527.473 38.5347 526.681 38.3275 525.88 38.3601C525.329 38.4784 524.843 38.7998 524.519 39.2604C524.195 39.7209 524.056 40.2867 524.13 40.8451V48.4051H520.875V35.6301H524.025V36.8901Z" fill="#7D7D7D"></path> <path d="M749.5 1H750.5C753.02 1 755.436 2.00089 757.218 3.78249C758.999 5.56408 760 7.98044 760 10.5V73.5C760 76.0196 758.999 78.4359 757.218 80.2175C755.436 81.9991 753.02 83 750.5 83H638.5C635.98 83 633.564 81.9991 631.782 80.2175C630.001 78.4359 629 76.0196 629 73.5V10.5C629 7.98044 630.001 5.56408 631.782 3.78249C633.564 2.00089 635.98 1 638.5 1H749.5Z" fill="white" stroke="#7D7D7D" stroke-width="2"></path> <path d="M706.357 21.5612H683.644V62.4389H706.357V21.5612Z" fill="#7D7D7D"></path> <path d="M685.086 42C685.086 33.6944 688.98 26.3278 694.964 21.5611C690.566 18.0944 685.014 16 678.957 16C664.609 16 653 27.6278 653 42C653 56.3722 664.609 68 678.957 68C685.014 68 690.566 65.9055 694.964 62.4389C688.98 57.7444 685.086 50.3055 685.086 42Z" fill="#7D7D7D"></path> <path d="M737 42C737 56.3722 725.391 68 711.043 68C704.986 68 699.434 65.9055 695.036 62.4389C701.092 57.6722 704.914 50.3055 704.914 42C704.914 33.6944 701.02 26.3278 695.036 21.5611C699.434 18.0944 704.986 16 711.043 16C725.391 16 737 27.7 737 42Z" fill="#C8C8C8"></path> <path d="M906.5 1H907.5C910.02 1 912.436 2.00089 914.218 3.78249C915.999 5.56408 917 7.98044 917 10.5V73.5C917 76.0196 915.999 78.4359 914.218 80.2175C912.436 81.9991 910.02 83 907.5 83H795.5C792.98 83 790.564 81.9991 788.782 80.2175C787.001 78.4359 786 76.0196 786 73.5V10.5C786 7.98044 787.001 5.56408 788.782 3.78249C790.564 2.00089 792.98 1 795.5 1H906.5Z" fill="white" stroke="#7D7D7D" stroke-width="2"></path> <path fill-rule="evenodd" clip-rule="evenodd" d="M847.805 28.24H862.531C870.438 28.24 873.414 32.2266 872.954 38.0835C872.194 47.7528 866.325 53.1023 858.54 53.1023H854.609C853.541 53.1023 852.822 53.8065 852.534 55.7146L850.865 66.8075C850.755 67.5268 850.374 67.9433 849.804 68.0001H840.552C839.681 68.0001 839.373 67.3375 839.601 65.9026L845.243 30.3412C845.463 28.9177 846.246 28.24 847.805 28.24Z" fill="#C8C8C8"></path> <path fill-rule="evenodd" clip-rule="evenodd" d="M838.594 16H853.336C857.487 16 862.413 16.1325 865.705 19.0288C867.906 20.9634 869.062 24.0414 868.796 27.3578C867.891 38.568 861.159 44.8489 852.127 44.8489H844.859C843.619 44.8489 842.802 45.6667 842.452 47.8777L840.422 60.7499C840.289 61.5828 839.928 62.075 839.282 62.1356H830.185C829.178 62.1356 828.821 61.3784 829.083 59.705L835.621 18.4457C835.884 16.7875 836.8 16 838.594 16Z" fill="#7D7D7D"></path> <path fill-rule="evenodd" clip-rule="evenodd" d="M842.666 46.5714L845.239 30.3411C845.463 28.9176 846.246 28.2361 847.805 28.2361H862.531C864.968 28.2361 866.941 28.6147 868.484 29.3151C867.006 39.2948 860.524 44.8375 852.04 44.8375H844.783C843.81 44.8413 843.095 45.3259 842.666 46.5714Z" fill="#7D7D7D"></path></svg>